<svg xmlns="http://www.w3.org/2000/svg" viewBox="0 0 26 25.37" aria-labeledby="tm-icon-login" role="img">
  <defs><style>.tm-icon-login-1{fill:#dc3e26;}.tm-icon-login-2{fill:none;}</style></defs>
  <title id="tm-icon-login">icon-login</title>
  <path class="tm-icon-login-1" d="M13,12.8a6.15,6.15,0,1,1,6.15-6.15A6.16,6.16,0,0,1,13,12.8ZM13,1.5a5.15,5.15,0,1,0,5.15,5.15A5.16,5.16,0,0,0,13,1.5Z"/><path class="tm-icon-login-1" d="M12.91,24.88A41.34,41.34,0,0,1,2.75,23.62l-.34-.09-.53-5.29c-.12-1.1,0-1.24.12-1.36a4.35,4.35,0,0,1,.86-.54L9,13l.24.14a7.6,7.6,0,0,0,7.5,0L17,13l.72.39,5.42,3c1,.53,1,.76,1,.91h0a8.58,8.58,0,0,1-.05,1l-.53,5.26-.34.09A41.19,41.19,0,0,1,12.91,24.88ZM3.33,22.73a41,41,0,0,0,19.32,0l.46-4.57c0-.22,0-.44.05-.59a4.41,4.41,0,0,0-.52-.33L17,14.13a8.6,8.6,0,0,1-8,0L3.34,17.21l-.51.3c0,.15,0,.38,0,.62Z"/><rect class="tm-icon-login-2" width="26" height="25.37"/>
</svg>
