<svg xmlns="http://www.w3.org/2000/svg" xmlns:xlink="http://www.w3.org/1999/xlink" viewBox="0 0 28.47 28.84"><defs><style>.cls-1{clip-rule:evenodd;}.cls-2{opacity:0.15;}.cls-3{fill-rule:evenodd;}.cls-4{clip-path:url(#clip-path);}.cls-5{clip-path:url(#clip-path-2);}.cls-6{clip-path:url(#clip-path-3);}.cls-7{clip-path:url(#clip-path-4);}.cls-8{fill:none;}</style><clipPath id="clip-path"><path class="cls-1" d="M23.32,14.63a10.66,10.66,0,0,0-.17-1.9H14.42v3.59h5a4.3,4.3,0,0,1-1.85,2.8v2.32h3a9,9,0,0,0,2.77-6.81Z"/></clipPath><clipPath id="clip-path-2"><path class="cls-1" d="M14.42,23.69a8.82,8.82,0,0,0,6.13-2.25l-3-2.32a5.62,5.62,0,0,1-3.14.88,5.53,5.53,0,0,1-5.19-3.82H6.14v2.4a9.26,9.26,0,0,0,8.28,5.11Z"/></clipPath><clipPath id="clip-path-3"><path class="cls-1" d="M9.23,16.18a5.49,5.49,0,0,1,0-3.52v-2.4H6.14a9.24,9.24,0,0,0,0,8.32l3.09-2.4Z"/></clipPath><clipPath id="clip-path-4"><path class="cls-1" d="M14.42,8.84A5,5,0,0,1,18,10.22l2.66-2.66a8.91,8.91,0,0,0-6.2-2.41,9.26,9.26,0,0,0-8.28,5.11l3.09,2.4a5.53,5.53,0,0,1,5.19-3.82Z"/></clipPath></defs><title>icon-google</title><g id="Layer_2" data-name="Layer 2"><g id="Layer_1-2" data-name="Layer 1"><g class="cls-2"><path class="cls-3" d="M23.32,14.63a10.66,10.66,0,0,0-.17-1.9H14.42v3.59h5a4.3,4.3,0,0,1-1.85,2.8v2.32h3a9,9,0,0,0,2.77-6.81Z"/><g class="cls-4"><rect id="_Path_" data-name="&lt;Path&gt;" x="9.27" y="7.58" width="19.2" height="19.01"/></g><path class="cls-3" d="M14.42,23.69a8.82,8.82,0,0,0,6.13-2.25l-3-2.32a5.62,5.62,0,0,1-3.14.88,5.53,5.53,0,0,1-5.19-3.82H6.14v2.4a9.26,9.26,0,0,0,8.28,5.11Z"/><g class="cls-5"><rect id="_Path_2" data-name="&lt;Path&gt;" x="0.99" y="11.03" width="24.72" height="17.81"/></g><path class="cls-3" d="M9.23,16.18a5.49,5.49,0,0,1,0-3.52v-2.4H6.14a9.24,9.24,0,0,0,0,8.32l3.09-2.4Z"/><g class="cls-6"><rect id="_Path_3" data-name="&lt;Path&gt;" y="5.11" width="14.38" height="18.63"/></g><path class="cls-3" d="M14.42,8.84A5,5,0,0,1,18,10.22l2.66-2.66a8.91,8.91,0,0,0-6.2-2.41,9.26,9.26,0,0,0-8.28,5.11l3.09,2.4a5.53,5.53,0,0,1,5.19-3.82Z"/><g class="cls-7"><rect id="_Path_4" data-name="&lt;Path&gt;" x="0.99" width="24.79" height="17.81"/></g></g><rect class="cls-8" x="4.73" y="3.42" width="19" height="22"/></g></g></svg>