<svg xmlns="http://www.w3.org/2000/svg" viewBox="0 0 1959.99 236.46"><defs><style>.cls-1{fill:none;stroke:#b0b7b7;stroke-miterlimit:10;}</style></defs><title>lines</title><g id="Layer_2" data-name="Layer 2"><g id="Layer_1-2" data-name="Layer 1"><path class="cls-1" d="M1946.28,93.16C1737.12,6.87,1579.57,10,1472.15,30.6,1272.94,68.75,1213.75,173,1027.63,152.43c-71.94-8-134.67-31.46-289.76-42.81-76.8-5.62-116.12-8.26-161.34,0C444,133.84,420.76,203.3,339.45,191.94c-73.84-10.31-81.77-71.38-171.22-88.9C94.74,88.64,25.55,112.59,26.28,119.5c1.39,13.12,257.59-14.91,1194.24-61,590-29,736.75-30.11,739-11.47,1.91,16.2-104.63,53.71-220.61,62.56-288.71,22-386.09-152.56-589.4-98.78C1033,41.65,1062.66,99.56,882.75,172.18c-84.46,34.1-264.16,106.63-398.42,29.64C407.49,157.75,412.8,103.29,346,73.4,241.56,26.64,104.27,104.39.3,182.06"/></g></g></svg>